<?xml version="1.0" encoding="UTF-8" standalone="no"?>
<!-- Created with Inkscape (http://www.inkscape.org/) -->

<svg
   width="20"
   height="16"
   viewBox="0 0 640 512"
   version="1.1"
   id="svg1320"
   sodipodi:docname="yavsap-logo-5.plain.svg"
   inkscape:version="1.1.2 (0a00cf5339, 2022-02-04)"
   xmlns:inkscape="http://www.inkscape.org/namespaces/inkscape"
   xmlns:sodipodi="http://sodipodi.sourceforge.net/DTD/sodipodi-0.dtd"
   xmlns="http://www.w3.org/2000/svg"
   xmlns:svg="http://www.w3.org/2000/svg">
  <sodipodi:namedview
     id="namedview1322"
     pagecolor="#ffffff"
     bordercolor="#666666"
     borderopacity="1.0"
     inkscape:pageshadow="2"
     inkscape:pageopacity="0.0"
     inkscape:pagecheckerboard="true"
     inkscape:document-units="mm"
     showgrid="true"
     units="px"
     inkscape:zoom="36.717396"
     inkscape:cx="10.526346"
     inkscape:cy="5.9917103"
     inkscape:window-width="1920"
     inkscape:window-height="1015"
     inkscape:window-x="0"
     inkscape:window-y="0"
     inkscape:window-maximized="1"
     inkscape:current-layer="layer1">
    <inkscape:grid
       type="xygrid"
       id="grid1381" />
  </sodipodi:namedview>
  <defs
     id="defs1317">
    <clipPath
       clipPathUnits="userSpaceOnUse"
       id="clipPath864">
      <circle
         style="fill:none;fill-opacity:1;stroke:#0c542a;stroke-width:0.0661458;stroke-linecap:round;stroke-miterlimit:4;stroke-dasharray:none;stroke-opacity:1"
         id="circle866"
         cx="2.6458333"
         cy="2.1166666"
         r="1.8520833" />
    </clipPath>
  </defs>
  <g
     inkscape:label="Layer 1"
     inkscape:groupmode="layer"
     id="layer1">
    <path
       id="path1391"
       style="color:#000000;display:inline;fill:#26af64;stroke-width:8.29033;stroke-linecap:round;-inkscape-stroke:none"
       d="M 320.09714,19.789774 C 189.65558,19.789766 83.628351,125.55792 83.628367,255.99948 c -6e-6,130.44158 106.027213,236.20972 236.468773,236.20972 130.44156,0 236.27452,-105.76814 236.27449,-236.20972 v -4.14516 H 324.30708 V 19.789774 Z"
       inkscape:label="three-quarter-pie" />
    <path
       id="path1348"
       clip-path="none"
       style="color:#000000;display:inline;fill:#fffffc;fill-opacity:1;stroke-width:5.97249;-inkscape-stroke:none"
       inkscape:label="three-quarter-phage"
       d="M 10.001953,0.74414062 A 7.2540403,7.2540403 0 0 0 9.2949219,1.0371094 L 6.640625,2.3632812 v 6.5683594 l 3.1621094,1.5800784 v 2.210937 L 8.4726562,10.0625 8.3789062,9.8769531 8.2402344,10.294922 5.25,13.285156 a 7.2540403,7.2540403 0 0 0 0.5371094,0.220703 l 1.6601562,-0.830078 -0.4433594,1.333985 a 7.2540403,7.2540403 0 0 0 0.3652344,0.152343 l 0.5742188,-1.734375 0.4355468,-0.21875 1.4238282,1.423828 v 0.396485 L 10,13.830078 l 0.199219,0.199219 v -0.398438 l 1.412109,-1.421875 0.439453,0.220704 0.736328,2.199218 a 7.2540403,7.2540403 0 0 0 0.365235,-0.152344 l -0.601563,-1.796874 1.914063,0.958984 a 7.2540403,7.2540403 0 0 0 0.361328,-0.277344 l -3.074219,-3.064453 -0.140625,-0.4199219 -0.0918,0.1874999 -0.002,-0.002 -0.537109,1.082031 -0.78125,1.574219 V 10.511719 L 13.361328,8.9316406 V 7.9980469 h -0.396484 v 0.6875 l -2.240235,1.1210937 0.0625,-0.0625 C 10.999577,9.6387878 11.195205,9.5431107 11.453125,9.4140625 L 12.916016,8.6816406 V 7.9980469 h -0.0059 V 8.6757812 L 11.451172,9.4082031 C 11.19932,9.5342129 11.009374,9.6269673 10.800781,9.7304688 l 0.01758,-0.017578 c -0.132363,0.065668 -0.302899,0.1512302 -0.408203,0.203125 -0.06173,0.03042 -0.0963,0.04602 -0.146484,0.070312 l -0.01563,0.017578 c -0.156103,0.07634 -0.2702466,0.131524 -0.2734376,0.13086 -0.00174,-3.63e-4 -0.1253077,-0.06296 -0.1757813,-0.08789 l -0.011719,-0.01172 C 9.7178765,10.000602 9.6457392,9.9654508 9.5429688,9.9140625 9.4614659,9.8733092 9.3251205,9.8052128 9.2265625,9.7558594 l 0.013672,0.011719 C 9.0158762,9.6551376 8.7952347,9.5459721 8.5136719,9.4042969 L 7.0683594,8.6757812 V 5.6640625 2.6523438 l 1.4746094,-0.7382813 0.6191406,-0.3105469 -0.017578,0.019531 0.5625,-0.2832031 0.017578,-0.017578 0.2773436,-0.1386718 v -0.00977 L 9.7441406,1.30273 9.8164066,1.230464 10.001953,1.138667 Z m -0.2949218,0.59570318 -1.1875,1.1875 v 6.2402343 l 1.2675782,1.2675779 c 0.019971,0.01 0.053461,0.0268 0.070312,0.03516 0.037616,0.01862 0.067602,0.03306 0.087891,0.04297 0.010144,0.0049 0.017993,0.0072 0.023437,0.0098 0.00269,0.0013 0.00442,0.0033 0.00586,0.0039 0.00129,-4.9e-4 0.00511,-0.0027 0.00781,-0.0039 0.00544,-0.0023 0.011262,-0.005 0.021484,-0.0098 0.0205,-0.0095 0.05185,-0.02464 0.08984,-0.04297 0.04092,-0.01976 0.111382,-0.05565 0.169922,-0.083984 l 1.21875,-1.21875 V 7.9980469 H 10.001953 V 1.1914062 Z M 9.1445312,1.6230469 8.546875,1.921875 7.0742188,2.65625 V 5.6640625 8.671875 L 8.515625,9.3984375 c 0.2751786,0.1384628 0.489242,0.2464067 0.7109375,0.3574219 l -0.90625,-0.90625 V 2.4453125 Z m 1.6738278,8.0898437 c 0.203871,-0.1011442 0.385427,-0.1906784 0.628907,-0.3125 L 12.904297,8.671875 V 7.9980469 H 11.681641 V 8.8496094 Z M 9.2597656,1.5078125 9.1816406,1.5839844 8.5410156,1.90625 7.0585938,2.6484375 v 3.015625 3.0175781 L 8.5097656,9.4101562 C 8.7998912,9.5561416 9.0294,9.6723099 9.2578125,9.7871094 L 9.2773438,9.8046875 7.0390625,8.6855469 V 2.609375 Z m 0.9726564,8.5117185 -0.06641,0.06641 -0.164063,0.08203 -0.1640624,-0.08203 -0.021484,-0.02149 c 0.00923,0.0046 0.02677,0.01342 0.035156,0.01758 0.037639,0.01868 0.067504,0.03499 0.087891,0.04492 0.010223,0.005 0.017915,0.0091 0.023437,0.01172 0.00277,0.0013 0.00429,0.0032 0.00586,0.0039 h 0.00391 0.00195 0.00391 c 0.00174,-6.58e-4 0.00698,-0.0027 0.00977,-0.0039 0.00564,-0.0024 0.011144,-0.0069 0.021485,-0.01172 0.0206,-0.0096 0.05182,-0.02262 0.08984,-0.04101 0.03193,-0.01542 0.09007,-0.04514 0.132813,-0.06641 z m -1.7851564,0.890625 0.8203125,1.626953 -0.8066406,-0.80664 -0.3417969,0.171875 z m 3.0957034,0 0.330078,0.986328 -0.332031,-0.166015 -0.816407,0.816406 z m -3.5781252,0.208985 -0.3417969,1.029297 -1.3632813,0.68164 z m 4.0644532,0.0039 1.699219,1.699219 -1.357422,-0.677735 z"
       transform="scale(32)" />
    <path
       id="path1325"
       style="display:inline;fill:#ffffff;fill-opacity:1;stroke:none;stroke-width:8.29033;stroke-linecap:round;stroke-miterlimit:4;stroke-dasharray:none;stroke-opacity:1"
       d="M 320.03237,23.805403 V 255.93472 H 552.16171 A 232.1293,232.1293 0 0 0 320.03237,23.805403 Z"
       inkscape:label="one-quarter-pie" />
    <path
       id="path1302"
       clip-path="none"
       style="color:#000000;display:inline;fill:#26af64;fill-opacity:1;stroke-width:5.97249;-inkscape-stroke:none"
       inkscape:label="one-quarter-phage"
       d="M 10.001953,0.74414062 V 1.1386719 l 0.185547,0.091797 0.04297,0.042969 -0.214844,-0.1074219 -0.01367,0.00781 v 0.00977 l 0.01563,-0.00781 0.230469,0.1152344 0.01953,0.019531 0.554688,0.2753906 -0.01758,-0.017578 0.658203,0.3300781 1.447265,0.7207031 v 3.0292969 2.3496094 h 0.0059 V 5.6484375 2.6132812 l -1.449219,-0.7207031 -0.679688,-0.3398437 -0.04687,-0.046875 2.22461,1.1035156 v 5.3886719 h 0.396484 V 2.3632812 L 10.152344,0.75976562 a 7.2540403,7.2540403 0 0 0 -0.150391,-0.015625 z m 0.820313,0.84179688 0.859375,0.859375 v 5.5527344 h 1.222656 V 5.6484375 2.6230469 l -1.443359,-0.71875 z m -0.554688,-0.2753906 -0.251953,-0.125 -0.01367,0.00586 v 6.8066407 h 1.480469 V 2.5273438 Z"
       transform="scale(32)" />
    <path
       style="color:#000000;display:inline;fill:#0c542a;stroke-width:125.334;stroke-linecap:round;-inkscape-stroke:none"
       d="M 320.11399,19.774476 C 189.67242,19.774471 83.643662,125.55843 83.643666,256 c 0,130.44157 106.028754,236.22553 236.470324,236.22552 130.44155,0 236.22552,-105.78397 236.22552,-236.22552 0,-130.44157 -105.78397,-236.225525 -236.22552,-236.225524 z m 0,8.078175 c 125.96113,0 227.90255,102.186199 227.90254,228.147349 0,125.96113 -101.94141,227.90255 -227.90254,227.90255 C 194.15284,483.90255 91.966638,381.96114 91.966639,256 91.966634,130.03885 194.15284,27.852646 320.11399,27.852651 Z"
       id="path7359"
       inkscape:label="ring" />
  </g>
</svg>
